# xmcd
#
# Track frame offsets: 
#        150
#        13602
#        34563
#        46595
#        60013
#        78047
#        99247
#        114990
#        149139
#        182808
#        198775
#        220393
#
# Disc length: 3643 seconds
#
# Revision: 2
# Processed by: cddbd v1.5.2PL0 Copyright (c) Steve Scherf et al.
# Submitted via: ExactAudioCopy v0.99pb5
#
DISCID=8e0e390c
DTITLE=Scott Keeton and the Deviants - Live
DYEAR=2002
DGENRE=Blues
TTITLE0=Drinkin' Whiskey
TTITLE1=Don't Want To Cry
TTITLE2=Let You Go
TTITLE3=Twenty Flight Rock
TTITLE4=Finish The Race
TTITLE5=Can't Judge A Book
TTITLE6=Wait On Time
TTITLE7=Walk Don't Run
TTITLE8=Cross Your Heart
TTITLE9=Scream
TTITLE10=Change Me
TTITLE11=Marie Marie, Baby Please Don't Go, Rumble
EXTD=
EXTT0=
EXTT1=
EXTT2=
EXTT3=
EXTT4=
EXTT5=
EXTT6=
EXTT7=
EXTT8=
EXTT9=
EXTT10=
EXTT11=
PLAYORDER=
